# xmcd
# 
# Track frame offsets:
#     150
#     18600
#     33300
#     48225
#     57275
#     73875
#     90750
#     107250
#     124162
#     142575
# 
# Disc length: 2095
# 
# Revision: 3
# Processed by: cddbd v1.5.2PL0 Copyright (c) Steve Scherf et al.
# Submitted via: BonkEnc v1.0.6
# 
DISCID=77082d0a
DTITLE=秋吉満ちる・小椋佳・風戸慎介 - GingaEiyuuDensetu Theme songs
DYEAR=1991
DGENRE=Soundtrack
TTITLE0=秋吉満ちる/I AM WAITING FOR YOU
TTITLE1=小椋佳/旅立ちの序曲
TTITLE2=同盟国民/同盟国家〜自由の旗、自由の民、レボリューション・オブ・ザ・ハート
TTITLE3=風戸慎介/帝国軍楽曲〜ワルキューレは汝の勇気を愛せり
TTITLE4=秋吉満ちる/SKIES OF LOVE
TTITLE5=小椋佳/光の橋を超えて
TTITLE6=秋吉満ちる・風戸慎介/SKIES OF LOVE（オーケストレーション・バージョン）
TTITLE7=小椋稽・風戸慎介/光の橋を超えて（オーケストレーション・バージョン）
TTITLE8=秋吉満ちる・風戸慎介/I AM WAITING FOR YOU（オーケストレーション・バージョン）
TTITLE9=小椋佳・風戸慎介/旅立ちの序曲（オーケストレーション・バージョン）
EXTD=YEAR: 1991
EXTT0=Mitiru Akiyosi
EXTT1=Kei Ogura
EXTT2=
EXTT3=
EXTT4=Mitiru Akiyosi
EXTT5=Kei Ogura
EXTT6=
EXTT7=
EXTT8=
EXTT9=
PLAYORDER=
